<?xml version="1.0" encoding="utf-8"?>
<!-- Generator: Adobe Illustrator 19.0.1, SVG Export Plug-In . SVG Version: 6.00 Build 0)  -->
<svg version="1.1" id="Layer_1" xmlns="http://www.w3.org/2000/svg" xmlns:xlink="http://www.w3.org/1999/xlink" x="0px" y="0px"
	 viewBox="0 0 147.2 105.6" style="enable-background:new 0 0 147.2 105.6;" xml:space="preserve">
<style type="text/css">
	.st0{fill:#138A44;}
	.st1{fill:#D55140;}
	.st2{fill:#EA632A;}
	.st3{fill:#F15D74;}
	.st4{fill:#78C3A2;}
	.st5{fill:#644A83;}
	.st6{fill:#D24537;}
	.st7{fill:#D49D3F;}
	.st8{fill:#175182;}
</style>
<path class="st4" d="M145.7,98.5c0.3,1.4-0.1,2.6-1,3.6c-1,1-2.2,1.3-3.6,1l-13.8-3.4c-6.4,3.9-13.5,5.9-21.4,5.9
	c-9.5,0-18-2.8-25.6-8.4c-8.4,5.3-17.6,8-27.7,8c-9.2,0-17.7-2.2-25.6-6.7l-19.3,4.6c-1.4,0.3-2.6-0.1-3.6-1c-1-1-1.3-2.2-1-3.6
	l4.6-18C1.5,70.1-1,58.8,0.4,46.5c1.4-12.3,6.4-22.8,15.1-31.4C25.8,5,38.2,0,52.7,0c14.5,0,27,5,37.3,15.1c2.5,2.8,4.9,5.7,7.1,8.8
	c2.8-0.6,5.7-0.8,8.8-0.8c11.4,0,21.2,4.1,29.3,12.1c6.4,6.4,10.3,14.2,11.5,23.5c1.3,9.2-0.4,17.7-4.8,25.6L145.7,98.5z M81.2,87.6
	c1.1-1.1,2.2-2.2,3.4-3.4C93.5,75.6,98,64.9,98,52.4c0-7-1.5-13.5-4.6-19.7c-1.1-2.2-2.4-4.4-3.8-6.5c-1.4-2.1-3.1-4-5-5.7
	C75.9,11.6,65.3,7.1,52.7,7.1s-23.2,4.5-31.8,13.4C13.1,28.1,8.7,37.2,7.7,48c-1,10.8,1.5,20.6,7.3,29.5c0.8,0.8,1.1,1.8,0.8,2.9
	l-3.8,13.8l14.7-3.4c0.3-0.3,0.6-0.4,0.8-0.4c0.6,0,1.1,0.3,1.7,0.8c7.3,4.2,15.1,6.3,23.5,6.3c7.8,0,15.2-2,22.2-5.9
	C77.2,90.6,79.3,89.2,81.2,87.6z M56.5,62.4v-7.1c3.9-1.1,7.1-2.9,9.6-5.4c2.8-3.1,4.2-7,4.2-11.7c0-2.5-0.5-4.8-1.5-6.9
	c-1-2.1-2.3-3.8-4-5.2c-1.7-1.4-3.7-2.5-6.1-3.4c-2.4-0.8-4.8-1.3-7.3-1.3c-2,0-4,0.4-6.1,1c-2.1,0.7-4,1.6-5.7,2.7
	c-1.7,1.1-3.1,2.5-4.2,4.2c-1.1,2-1.7,3.9-1.7,5.9c0,1.7,0.5,3,1.5,4c1,1,2.2,1.5,3.6,1.5c1.1,0,2-0.3,2.7-0.8
	c0.7-0.6,1.3-1.5,1.9-2.9c0.8-2.2,2-3.8,3.4-4.6c1.4-0.8,3.1-1.3,5-1.3c2.2,0,4.1,0.7,5.7,2.1c1.5,1.4,2.3,3.2,2.3,5.4
	c0,0.8-0.1,1.6-0.2,2.3c-0.1,0.7-0.4,1.4-0.8,2.1c-0.4,0.7-1,1.3-1.9,1.9c-0.8,0.6-2,1-3.4,1.3c-1.7,0.3-2.9,0.6-3.8,0.8
	c-0.8,0.3-1.5,0.7-2.1,1.3c-0.6,0.8-1,1.7-1.3,2.5c0,0.6,0,1.4,0,2.5v9.2c0,1.7,0.5,3,1.5,4c1,1,2.2,1.5,3.8,1.5
	c1.5,0,2.7-0.5,3.6-1.5C56.1,65.4,56.5,64.1,56.5,62.4z M57.4,80.6c0-1.5-0.6-2.9-1.7-4c-1.1-1.1-2.4-1.7-4-1.7
	c-1.5,0-2.9,0.6-4,1.7c-1.1,1.1-1.7,2.4-1.7,4c0,1.5,0.6,2.9,1.7,4c1.1,1.1,2.4,1.7,4,1.7c1.5,0,2.9-0.6,4-1.7
	C56.8,83.5,57.4,82.2,57.4,80.6z M134.9,81.7c4.2-6.7,5.8-13.9,4.8-21.6c-1-7.7-4.3-14.3-9.8-19.9c-6.7-6.4-14.7-9.6-23.9-9.6
	c-1.7,0-3.5,0.1-5.4,0.4c3.4,6.7,5,13.8,5,21.4c0,14.5-5.2,27-15.5,37.3c-1.1,0.8-2.2,1.8-3.4,2.9c5.9,3.9,12.3,5.9,19.3,5.9
	c6.7,0,13-2,18.9-5.9c0.8-0.6,1.8-0.7,2.9-0.4l9.2,2.1l-2.5-9.6C134.2,83.8,134.3,82.8,134.9,81.7z"/>
</svg>
